Coordinates
version=1
nRows=11
nColumns=36
inDegrees=yes

Units are S.I. units (second, meters, Newtons, ...)
If the header above contains a line with 'inDegrees', this indicates whether rotational values are in degrees (yes) or radians (no).

endheader
time	pelvis_tilt	pelvis_list	pelvis_rotation	pelvis_tx	pelvis_ty	pelvis_tz	hip_flexion_r	hip_adduction_r	hip_rotation_r	knee_angle_r	knee_angle_r_beta	ankle_angle_r	subtalar_angle_r	mtp_angle_r	hip_flexion_l	hip_adduction_l	hip_rotation_l	knee_angle_l	knee_angle_l_beta	ankle_angle_l	subtalar_angle_l	mtp_angle_l	lumbar_extension	lumbar_bending	lumbar_rotation	arm_flex_r	arm_add_r	arm_rot_r	elbow_flex_r	pro_sup_r	arm_flex_l	arm_add_l	arm_rot_l	elbow_flex_l	pro_sup_l
      2.95416670	    -13.13835075	      3.95761344	     -1.59483908	     -0.05788426	      1.53909189	     -0.49637650	      8.99417726	     -6.03402576	    -25.41056269	      1.50959526	      0.02634741	    -49.73275016	     15.78369688	     -7.49999987	     12.44513090	     -1.11244550	     -9.83545929	      2.94129198	      0.05133523	    -40.63713816	     15.58204530	     -7.49999987	      4.05021055	     -6.34753444	      9.54830884	    106.18638384	   -116.35168310	     55.05217308	     93.43464060	     66.93781235	     91.89263465	    -58.94963847	     76.41570429	     64.18354001	     70.63061854
      2.95833330	    -13.28037364	      3.89191214	     -1.69825241	     -0.05763725	      1.54754785	     -0.49600627	      9.33224948	     -5.97910587	    -25.82615096	      1.36961175	      0.02390423	    -49.72985762	     15.70350211	     -7.49999987	     12.58901377	     -1.10171813	     -9.96867851	      2.60548850	      0.04547435	    -39.85823813	     15.69351533	     -7.49999987	      4.40671752	     -6.48043536	     10.31660608	    109.05018475	   -117.94390960	     58.71023420	     90.46182088	     66.93004594	     90.13960930	    -58.30294781	     74.10124115	     63.33857042	     69.91920942
      2.96250000	    -13.31718775	      3.73747611	     -1.70146138	     -0.05746229	      1.55703727	     -0.49592940	      9.49516016	     -5.84405955	    -26.29196960	      1.19217614	      0.02080740	    -49.72223200	     15.54983438	     -7.49999987	     12.68203548	     -1.14719023	     -9.78985105	      2.36727577	      0.04131676	    -39.13149385	     15.87842715	     -7.49999987	      4.32624058	     -6.33729430	     10.71365077	    108.74694354	   -119.56904343	     60.62814874	     87.56660196	     66.95294470	     89.41521646	    -58.72406668	     73.72260479	     63.67658762	     69.76883637
      2.96666670	    -13.37595387	      3.60518331	     -1.72271570	     -0.05756016	      1.56492976	     -0.49574817	      9.73557510	     -5.73576671	    -26.48623356	      1.03390402	      0.01804503	    -49.71282413	     15.46299834	     -7.49999987	     12.79818943	     -1.17046069	     -9.83006529	      2.13361123	      0.03723854	    -38.67635947	     16.04532164	     -7.49999987	      4.51044681	     -6.29731293	     11.04701524	    109.88888077	   -120.41467381	     63.12606500	     84.20801298	     66.87260073	     88.16577763	    -58.72360869	     72.23622301	     63.12922652	     69.09959925
      2.97083330	    -13.42131279	      3.45107655	     -1.66428174	     -0.05782111	      1.57263522	     -0.49571347	      9.97759174	     -5.63570576	    -26.59020646	      0.90116787	      0.01572835	    -49.70011458	     15.45603474	     -7.49999987	     12.93534493	     -1.19454827	     -9.73889906	      1.96591455	      0.03431168	    -38.37206922	     16.18536008	     -7.49999987	      4.45049473	     -6.18838931	     11.38186106	    109.91509357	   -121.58513284	     64.71906916	     81.06145588	     66.77873968	     87.55565406	    -59.01431074	     71.70764648	     63.30514397	     68.81828565
      2.97500000	    -13.42596344	      3.21709383	     -1.65431874	     -0.05800665	      1.58175971	     -0.49559358	     10.16430304	     -5.45679286	    -26.57341802	      0.77353877	      0.01350080	    -49.68291727	     15.43457546	     -7.49999987	     13.03194883	     -1.31216262	     -9.49379232	      1.85840769	      0.03243533	    -38.14687347	     16.38448262	     -7.49999987	      4.34971974	     -5.96799955	     11.71116800	    109.98807332	   -122.65861240	     66.43787623	     78.27020757	     66.68224418	     86.96903454	    -59.31249209	     71.25498276	     63.18934988	     68.57295968
      2.97916670	    -13.41104976	      3.00126011	     -1.59246569	     -0.05838851	      1.59033922	     -0.49559294	     10.36802106	     -5.31727257	    -26.44396280	      0.63825939	      0.01113973	    -49.65399679	     15.36044930	     -7.49999987	     13.13877198	     -1.39387525	     -9.28319834	      1.78259386	      0.03111213	    -38.15348856	     16.63060712	     -7.49999987	      4.25540332	     -5.75975775	     11.92708510	    110.16428407	   -123.42524616	     68.06729279	     75.41085509	     66.52770186	     86.39853934	    -59.55405251	     70.80970338	     62.87919963	     68.29254632
      2.98333330	    -13.40513523	      2.68713372	     -1.56568328	     -0.05872922	      1.59823365	     -0.49565578	     10.56854855	     -5.08342647	    -26.31003232	      0.54115274	      0.00944490	    -49.62192243	     15.29694557	     -7.49999987	     13.25588038	     -1.58509132	     -9.10924993	      1.73126754	      0.03021632	    -38.42457680	     16.86206877	     -7.49999987	      4.20808915	     -5.39726021	     12.06706323	    110.46996932	   -123.93598161	     69.61115274	     72.61962624	     66.28906454	     85.66961153	    -59.86131573	     70.26043693	     62.42656436	     67.92918236
      2.98750000	    -13.38062663	      2.30331866	     -1.52815986	     -0.05895610	      1.60716671	     -0.49589562	     10.73130836	     -4.79754313	    -26.12397865	      0.45959463	      0.00802144	    -49.56653347	     15.21747983	     -7.49999987	     13.35917685	     -1.84614716	     -8.93253741	      1.73902367	      0.03035169	    -38.74752718	     17.10955744	     -7.49999987	      4.11908368	     -4.85982297	     11.56133705	    111.53651804	   -123.61120093	     71.51735094	     70.38653669	     64.84507423	     83.72062197	    -61.11194628	     67.91323830	     62.50197711	     66.27632961
      2.99166670	    -13.38684383	      2.19631997	     -1.45667560	     -0.05943990	      1.61284596	     -0.49606989	     11.03696421	     -4.80125360	    -25.98865436	      0.37613003	      0.00656471	    -49.49168790	     15.04971551	     -7.49999987	     13.50003849	     -1.82461320	     -8.83850610	      1.82984513	      0.03193682	    -39.17088858	     17.26096542	     -7.49999987	      4.03999183	     -4.69443221	     11.45919526	    111.66804751	   -123.91387733	     72.82780432	     68.14225175	     64.10605297	     83.13173681	    -61.82076164	     67.43651563	     62.24456904	     65.67067776
      2.99583330	    -13.30794442	      1.98973489	     -1.40392479	     -0.05961513	      1.62024757	     -0.49631476	     11.15736683	     -4.69572998	    -25.81808805	      0.33264085	      0.00580568	    -49.40795621	     14.88677261	     -7.49999987	     13.53802827	     -1.91004423	     -8.63022384	      1.90580857	      0.03326263	    -39.68263225	     17.42307827	     -7.49999987	      3.80044582	     -4.35501749	     11.36522121	    111.59445243	   -124.40682477	     73.80563399	     66.51515979	     63.66540638	     82.57746425	    -62.58630419	     67.16021922	     61.98896154	     65.12584861
